<svg width="24" height="24" viewBox="0 0 24 24" fill="none" xmlns="http://www.w3.org/2000/svg">
<g id="Frame" clip-path="url(#clip0_1_6616)">
<g id="Group">
<path id="Vector" d="M12 4.06758V0.705891C12 0.316031 12.316 0 12.7059 0H22.9412C23.331 0 23.6471 0.316031 23.6471 0.705891V23.2941C23.6471 23.684 23.331 24 22.9412 24H22.2353C22.0848 24 21.9383 23.9519 21.8171 23.8628C21.6959 23.7736 21.6063 23.6481 21.5615 23.5044L20.5872 20.3833L16.3779 21.0257C14.597 21.2975 12.9292 20.0842 12.6544 18.3122C12.629 18.1486 12.6163 17.9834 12.6162 17.8179C12.6162 17.6297 12.6914 17.4493 12.825 17.3167L14.5653 15.5903L12.3643 14.2802C12.2592 14.2176 12.1722 14.1288 12.1117 14.0225C12.0513 13.9162 12.0195 13.7959 12.0195 13.6736V12.0114H11.0759C10.0281 12.0114 9.17642 11.1665 9.17642 10.1214C9.17644 9.82723 9.24543 9.53713 9.37784 9.27441L12 4.06758ZM4.77725 20.6596C5.05292 20.3839 5.49987 20.3839 5.7755 20.6596C6.05117 20.9353 6.05117 21.3822 5.7755 21.6578C4.535 22.8983 2.52378 22.8983 1.28328 21.6578C0.0427803 20.4173 0.0427803 18.4061 1.28328 17.1656C1.88666 16.5623 2.693 16.2352 3.52939 16.2352H9.52939C9.91925 16.2352 10.2353 16.5513 10.2353 16.9411C10.2353 17.331 9.91925 17.647 9.52939 17.647H3.52939C3.06373 17.647 2.61744 17.828 2.28158 18.1639C1.59242 18.8531 1.59242 19.9704 2.28158 20.6596C2.97073 21.3488 4.08809 21.3488 4.77725 20.6596ZM8.11761 13.7647C8.50747 13.7647 8.8235 14.0807 8.8235 14.4706C8.8235 14.8605 8.50747 15.1765 8.11761 15.1765H3.88236C3.55787 15.1768 3.2365 15.1131 2.93671 14.9889C2.63692 14.8647 2.3646 14.6826 2.13537 14.4529C1.17055 13.488 1.17055 11.9238 2.13537 10.9589C3.1002 9.99408 4.66447 9.99408 5.6293 10.9589C5.90497 11.2346 5.90497 11.6815 5.6293 11.9572C5.35362 12.2328 4.90672 12.2328 4.63105 11.9572C4.21756 11.5437 3.54715 11.5437 3.13367 11.9572C2.72019 12.3706 2.72019 13.0411 3.13367 13.4546C3.2318 13.5532 3.34849 13.6313 3.47699 13.6845C3.60549 13.7378 3.74327 13.765 3.88236 13.7647H8.11761Z" fill="#FEB273"/>
</g>
</g>
<defs>
<clipPath id="clip0_1_6616">
<rect width="24" height="24" fill="white"/>
</clipPath>
</defs>
</svg>
