<svg width="17" height="17" viewBox="0 0 17 17" fill="none" xmlns="http://www.w3.org/2000/svg">
<g id="Frame">
<g id="Group">
<path id="Vector" d="M6.19196 6.60279L6.04203 6.60713L6.04195 6.60453C6.03087 6.22154 6.01202 5.56976 6.13883 4.86701C6.2659 4.16284 6.54129 3.39506 7.12864 2.79045C7.81869 2.08011 8.80349 1.72971 10.0343 1.7297L6.19196 6.60279ZM6.19196 6.60279L6.04203 6.60713C6.0445 6.69278 6.04654 6.76346 6.04654 6.81516C6.04654 7.39629 6.13956 7.93143 6.21963 8.39209L6.22031 8.39599C6.27279 8.69795 6.31526 8.9441 6.32273 9.13429C6.32533 9.20052 6.32286 9.24603 6.31936 9.27593C6.30387 9.27743 6.28429 9.2785 6.26007 9.2785C6.15692 9.2785 6.09105 9.2487 6.02541 9.1751L6.19196 6.60279ZM10.3661 2.07101L10.4959 1.99588C10.5428 2.07684 10.5675 2.1687 10.5676 2.26224C10.5678 2.35554 10.5434 2.44723 10.497 2.52816C10.4766 2.56458 10.2083 3.05737 10.2198 3.70467C10.2312 4.34194 10.5134 5.15154 11.6379 5.83566C12.1194 6.12858 12.7107 6.65352 13.1825 7.33012C13.6547 8.00717 14.0143 8.84641 14.0144 9.7664C14.0144 11.1868 13.4578 12.5272 12.4484 13.5395C11.4363 14.5545 10.0928 15.1141 8.66654 15.1141C7.24498 15.1141 5.90114 14.546 4.88327 13.5171C4.39457 13.023 4.00977 12.4509 3.73993 11.817L3.87754 11.7584L3.73993 11.817C3.46076 11.1611 3.31899 10.471 3.31899 9.76645C3.31899 9.01618 3.51007 8.22123 3.83254 7.6094C4.15004 7.00699 4.62347 6.53365 5.20793 6.53365H5.20794C5.28317 6.53365 5.35755 6.54957 5.42619 6.58037C5.49483 6.61116 5.55619 6.65612 5.60622 6.71231C5.65625 6.76849 5.69383 6.83463 5.71648 6.90637C5.73912 6.97804 5.74635 7.05369 5.7377 7.12835C5.70348 7.42646 5.69244 7.85259 5.73497 8.25276C5.75622 8.45266 5.79046 8.64237 5.84013 8.80461L10.3661 2.07101ZM10.3661 2.07101L10.4959 1.99588C10.4491 1.91492 10.3818 1.84771 10.3007 1.80099M10.3661 2.07101L10.3007 1.80099M4.66925 8.33199C4.68707 8.50947 4.71452 8.69233 4.75542 8.87186C4.83951 9.24104 4.98324 9.60866 5.22861 9.88422L5.33689 9.7878L5.22862 9.88422C5.49655 10.1851 5.85536 10.3451 6.26009 10.3451C6.62941 10.3451 6.9351 10.2321 7.14136 9.98682C7.14137 9.98682 7.14137 9.98682 7.14137 9.98681L7.02658 9.89026C7.34466 9.51213 7.24706 8.95038 7.12349 8.23918L4.66925 8.33199ZM4.66925 8.33199C4.48859 8.76211 4.38567 9.27466 4.38567 9.7664C4.38567 12.0854 6.34762 14.0474 8.66654 14.0474C11.027 14.0474 12.9477 12.1268 12.9477 9.76642C12.9477 9.08999 12.6672 8.44686 12.2879 7.91205C11.9086 7.3771 11.4393 6.9634 11.0835 6.74694C9.48637 5.77527 9.14615 4.53538 9.15236 3.65783C9.15443 3.36425 9.19485 3.09463 9.24961 2.86227L4.66925 8.33199ZM10.3007 1.80099C10.2197 1.75427 10.1278 1.72969 10.0343 1.7297L10.3007 1.80099Z" fill="#717BBC" stroke="#717BBC" stroke-width="0.3"/>
</g>
</g>
</svg>
