<svg width="46" height="46" viewBox="0 0 46 46" fill="none" xmlns="http://www.w3.org/2000/svg">
<g id="Frame" clip-path="url(#clip0_1_6448)" filter="url(#filter0_dd_1_6448)">
<g id="Group">
<path id="Vector" d="M23 42C34.0457 42 43 33.0457 43 22C43 10.9543 34.0457 2 23 2C11.9543 2 3 10.9543 3 22C3 33.0457 11.9543 42 23 42Z" fill="white"/>
<path id="Vector_2" d="M35.8325 6.6675C38.7425 10.1412 40.5 14.6137 40.5 19.5C40.5 30.545 31.545 39.5 20.5 39.5C15.6138 39.5 11.1413 37.7425 7.66751 34.8325C11.3363 39.2125 16.84 42 23 42C34.045 42 43 33.045 43 22C43 15.84 40.2125 10.3362 35.8325 6.6675Z" fill="white"/>
<path id="Vector_3" d="M34.875 27C35.9105 27 36.75 26.1605 36.75 25.125C36.75 24.0895 35.9105 23.25 34.875 23.25C33.8395 23.25 33 24.0895 33 25.125C33 26.1605 33.8395 27 34.875 27Z" fill="white"/>
<path id="Vector_4" d="M11.125 27C12.1605 27 13 26.1605 13 25.125C13 24.0895 12.1605 23.25 11.125 23.25C10.0895 23.25 9.25 24.0895 9.25 25.125C9.25 26.1605 10.0895 27 11.125 27Z" fill="white"/>
<path id="Vector_5" d="M29.8188 27H16.1813C15.805 27 15.5 27.28 15.5 27.625C15.5 31.4163 18.8637 34.5 23 34.5C27.1362 34.5 30.5 31.4163 30.5 27.625C30.5 27.28 30.195 27 29.8188 27Z" fill="#707070"/>
<path id="Vector_6" d="M30.45 28.25C30.4725 28.0425 30.5 27.8375 30.5 27.625C30.5 27.28 30.195 27 29.8188 27H16.1813C15.805 27 15.5 27.28 15.5 27.625C15.5 27.8375 15.5275 28.0425 15.55 28.25H30.45Z" fill="#AB7934"/>
<path id="Vector_7" d="M41.75 14.5H39.02C38.5013 13.0475 37.1275 12 35.5 12H28C26.695 12 25.5462 12.6712 24.875 13.685C24.2913 13.4012 23.6575 13.25 23 13.25C22.3425 13.25 21.7087 13.4012 21.125 13.685C20.4538 12.6712 19.305 12 18 12H10.5C8.8725 12 7.49875 13.0475 6.98 14.5H4.25C3.56 14.5 3 15.06 3 15.75C3 16.44 3.56 17 4.25 17H6.75V19.5C6.75 21.5675 8.4325 23.25 10.5 23.25H18C20.0675 23.25 21.75 21.5675 21.75 19.5V16.2638C22.5 15.6225 23.5 15.6225 24.25 16.2638V19.5C24.25 21.5675 25.9325 23.25 28 23.25H35.5C37.5675 23.25 39.25 21.5675 39.25 19.5V17H41.75C42.4412 17 43 16.44 43 15.75C43 15.06 42.4412 14.5 41.75 14.5Z" fill="#35495C"/>
<path id="Vector_8" d="M9.34 23.0475L14.25 12H13L8.3175 22.5363C8.625 22.7588 8.97125 22.9262 9.34 23.0475ZM26.84 23.0475L31.75 12H30.5L25.8175 22.5363C26.125 22.7588 26.4713 22.9262 26.84 23.0475ZM30.5 23.25H28L33 12H35.5L30.5 23.25ZM13 23.25H10.5L15.5 12H18L13 23.25Z" fill="#576D7E"/>
</g>
</g>
<defs>
<filter id="filter0_dd_1_6448" x="0" y="0" width="46" height="46" filterUnits="userSpaceOnUse" color-interpolation-filters="sRGB">
<feFlood flood-opacity="0" result="BackgroundImageFix"/>
<feColorMatrix in="SourceAlpha" type="matrix" values="0 0 0 0 0 0 0 0 0 0 0 0 0 0 0 0 0 0 127 0" result="hardAlpha"/>
<feOffset dy="1"/>
<feGaussianBlur stdDeviation="1"/>
<feColorMatrix type="matrix" values="0 0 0 0 0.0627451 0 0 0 0 0.0941176 0 0 0 0 0.156863 0 0 0 0.06 0"/>
<feBlend mode="normal" in2="BackgroundImageFix" result="effect1_dropShadow_1_6448"/>
<feColorMatrix in="SourceAlpha" type="matrix" values="0 0 0 0 0 0 0 0 0 0 0 0 0 0 0 0 0 0 127 0" result="hardAlpha"/>
<feOffset dy="1"/>
<feGaussianBlur stdDeviation="1.5"/>
<feColorMatrix type="matrix" values="0 0 0 0 0.0627451 0 0 0 0 0.0941176 0 0 0 0 0.156863 0 0 0 0.1 0"/>
<feBlend mode="normal" in2="effect1_dropShadow_1_6448" result="effect2_dropShadow_1_6448"/>
<feBlend mode="normal" in="SourceGraphic" in2="effect2_dropShadow_1_6448" result="shape"/>
</filter>
<clipPath id="clip0_1_6448">
<rect width="40" height="40" fill="white" transform="translate(3 2)"/>
</clipPath>
</defs>
</svg>
