<svg width="46" height="46" viewBox="0 0 46 46" fill="none" xmlns="http://www.w3.org/2000/svg">
<g id="Frame" clip-path="url(#clip0_1_6461)" filter="url(#filter0_dd_1_6461)">
<g id="Group">
<path id="Vector" d="M23 42C34.0457 42 43 33.0457 43 22C43 10.9543 34.0457 2 23 2C11.9543 2 3 10.9543 3 22C3 33.0457 11.9543 42 23 42Z" fill="white"/>
<path id="Vector_2" d="M35.8325 6.6675C38.7425 10.1412 40.5 14.6137 40.5 19.5C40.5 30.545 31.545 39.5 20.5 39.5C15.6138 39.5 11.1413 37.7425 7.66751 34.8325C11.3363 39.2125 16.84 42 23 42C34.045 42 43 33.045 43 22C43 15.84 40.2125 10.3362 35.8325 6.6675Z" fill="white"/>
<path id="Vector_3" d="M29.8188 25.75H16.1813C15.805 25.75 15.5 26.03 15.5 26.375C15.5 30.1663 18.8637 33.25 23 33.25C27.1362 33.25 30.5 30.1663 30.5 26.375C30.5 26.03 30.195 25.75 29.8188 25.75Z" fill="#707070"/>
<path id="Vector_4" d="M30.45 27C30.4725 26.7925 30.5 26.5875 30.5 26.375C30.5 26.03 30.195 25.75 29.8188 25.75H16.1813C15.805 25.75 15.5 26.03 15.5 26.375C15.5 26.5875 15.5275 26.7925 15.55 27H30.45Z" fill="#AB7934"/>
<path id="Vector_5" d="M15.5 22C16.8807 22 18 20.8807 18 19.5C18 18.1193 16.8807 17 15.5 17C14.1193 17 13 18.1193 13 19.5C13 20.8807 14.1193 22 15.5 22Z" fill="#707070"/>
<path id="Vector_6" d="M15.5 18.25C16.6637 18.25 17.6325 19.0487 17.9113 20.125C17.9637 19.9237 18 19.7175 18 19.5C18 18.12 16.88 17 15.5 17C14.12 17 13 18.12 13 19.5C13 19.7175 13.0363 19.9237 13.0888 20.125C13.3675 19.0487 14.3363 18.25 15.5 18.25Z" fill="#AB7934"/>
<path id="Vector_7" d="M30.5 22C31.8807 22 33 20.8807 33 19.5C33 18.1193 31.8807 17 30.5 17C29.1193 17 28 18.1193 28 19.5C28 20.8807 29.1193 22 30.5 22Z" fill="#707070"/>
<path id="Vector_8" d="M34.875 25.75C35.9105 25.75 36.75 24.9105 36.75 23.875C36.75 22.8395 35.9105 22 34.875 22C33.8395 22 33 22.8395 33 23.875C33 24.9105 33.8395 25.75 34.875 25.75Z" fill="white"/>
<path id="Vector_9" d="M11.125 25.75C12.1605 25.75 13 24.9105 13 23.875C13 22.8395 12.1605 22 11.125 22C10.0895 22 9.25 22.8395 9.25 23.875C9.25 24.9105 10.0895 25.75 11.125 25.75Z" fill="white"/>
<path id="Vector_10" d="M30.5 18.25C31.6637 18.25 32.6325 19.0487 32.9125 20.125C32.9638 19.9237 33 19.7175 33 19.5C33 18.12 31.88 17 30.5 17C29.12 17 28 18.12 28 19.5C28 19.7175 28.0362 19.9237 28.0875 20.125C28.3675 19.0487 29.3363 18.25 30.5 18.25Z" fill="#AB7934"/>
</g>
</g>
<defs>
<filter id="filter0_dd_1_6461" x="0" y="0" width="46" height="46" filterUnits="userSpaceOnUse" color-interpolation-filters="sRGB">
<feFlood flood-opacity="0" result="BackgroundImageFix"/>
<feColorMatrix in="SourceAlpha" type="matrix" values="0 0 0 0 0 0 0 0 0 0 0 0 0 0 0 0 0 0 127 0" result="hardAlpha"/>
<feOffset dy="1"/>
<feGaussianBlur stdDeviation="1"/>
<feColorMatrix type="matrix" values="0 0 0 0 0.0627451 0 0 0 0 0.0941176 0 0 0 0 0.156863 0 0 0 0.06 0"/>
<feBlend mode="normal" in2="BackgroundImageFix" result="effect1_dropShadow_1_6461"/>
<feColorMatrix in="SourceAlpha" type="matrix" values="0 0 0 0 0 0 0 0 0 0 0 0 0 0 0 0 0 0 127 0" result="hardAlpha"/>
<feOffset dy="1"/>
<feGaussianBlur stdDeviation="1.5"/>
<feColorMatrix type="matrix" values="0 0 0 0 0.0627451 0 0 0 0 0.0941176 0 0 0 0 0.156863 0 0 0 0.1 0"/>
<feBlend mode="normal" in2="effect1_dropShadow_1_6461" result="effect2_dropShadow_1_6461"/>
<feBlend mode="normal" in="SourceGraphic" in2="effect2_dropShadow_1_6461" result="shape"/>
</filter>
<clipPath id="clip0_1_6461">
<rect width="40" height="40" fill="white" transform="translate(3 2)"/>
</clipPath>
</defs>
</svg>
