<svg width="17" height="17" viewBox="0 0 17 17" fill="none" xmlns="http://www.w3.org/2000/svg">
<g id="list">
<path id="Icon" d="M14.5 8.42189L6.5 8.42189M14.5 4.42189L6.5 4.42189M14.5 12.4219L6.5 12.4219M3.83333 8.42189C3.83333 8.79008 3.53485 9.08855 3.16666 9.08855C2.79847 9.08855 2.5 8.79008 2.5 8.42189C2.5 8.0537 2.79847 7.75522 3.16666 7.75522C3.53485 7.75522 3.83333 8.0537 3.83333 8.42189ZM3.83333 4.42189C3.83333 4.79008 3.53485 5.08855 3.16666 5.08855C2.79847 5.08855 2.5 4.79008 2.5 4.42189C2.5 4.0537 2.79847 3.75522 3.16666 3.75522C3.53485 3.75522 3.83333 4.0537 3.83333 4.42189ZM3.83333 12.4219C3.83333 12.7901 3.53485 13.0886 3.16666 13.0886C2.79847 13.0886 2.5 12.7901 2.5 12.4219C2.5 12.0537 2.79847 11.7552 3.16666 11.7552C3.53485 11.7552 3.83333 12.0537 3.83333 12.4219Z" stroke="#717BBC" stroke-width="1.6" stroke-linecap="round" stroke-linejoin="round"/>
</g>
</svg>
