<svg width="46" height="46" viewBox="0 0 46 46" fill="none" xmlns="http://www.w3.org/2000/svg">
<g id="Frame" clip-path="url(#clip0_1_6433)" filter="url(#filter0_dd_1_6433)">
<g id="Group">
<path id="Vector" d="M23 41.9999C34.0457 41.9999 43 33.0456 43 21.9999C43 10.9542 34.0457 1.99988 23 1.99988C11.9543 1.99988 3 10.9542 3 21.9999C3 33.0456 11.9543 41.9999 23 41.9999Z" fill="white"/>
<path id="Vector_2" d="M35.8325 6.66727C38.7425 10.141 40.5 14.6135 40.5 19.4998C40.5 30.5448 31.545 39.4998 20.5 39.4998C15.6137 39.4998 11.1412 37.7423 7.66748 34.8323C11.3362 39.2123 16.84 41.9998 23 41.9998C34.045 41.9998 43 33.0448 43 21.9998C43 15.8398 40.2125 10.336 35.8325 6.66727Z" fill="#F9F9F9"/>
<path id="Vector_3" d="M29.8188 25.7498H16.1813C15.805 25.7498 15.5 26.0298 15.5 26.3748C15.5 30.166 18.8637 33.2498 23 33.2498C27.1362 33.2498 30.5 30.166 30.5 26.3748C30.5 26.0298 30.195 25.7498 29.8188 25.7498Z" fill="#C98E3F"/>
<path id="Vector_4" d="M30.45 26.9998C30.4725 26.7923 30.5 26.5873 30.5 26.3748C30.5 26.0298 30.195 25.7498 29.8188 25.7498H16.1813C15.805 25.7498 15.5 26.0298 15.5 26.3748C15.5 26.5873 15.5275 26.7923 15.55 26.9998H30.45Z" fill="#AB7934"/>
<path id="Vector_5" d="M34.875 25.7498C35.9105 25.7498 36.75 24.9103 36.75 23.8748C36.75 22.8393 35.9105 21.9998 34.875 21.9998C33.8395 21.9998 33 22.8393 33 23.8748C33 24.9103 33.8395 25.7498 34.875 25.7498Z" fill="#F9F9F9"/>
<path id="Vector_6" d="M11.125 25.7498C12.1605 25.7498 13 24.9103 13 23.8748C13 22.8393 12.1605 21.9998 11.125 21.9998C10.0895 21.9998 9.25 22.8393 9.25 23.8748C9.25 24.9103 10.0895 25.7498 11.125 25.7498Z" fill="#F9F9F9"/>
<path id="Vector_7" d="M15.5 21.9998C15.3 21.9998 15.1013 21.9248 14.9488 21.776L11.3763 18.266C10.8113 17.711 10.5 16.9735 10.5 16.1885C10.5 15.4035 10.8113 14.6648 11.3763 14.1085C11.9413 13.556 12.6925 13.2498 13.4925 13.2498C14.2413 13.2498 14.9488 13.906 15.5 14.3985C16.0512 13.906 16.76 13.2498 17.51 13.2498C18.31 13.2498 19.06 13.556 19.625 14.1098C20.1912 14.666 20.5 15.4035 20.5 16.1898C20.5 16.9748 20.19 17.7123 19.625 18.2673L16.0525 21.7773C15.9043 21.9205 15.7061 22.0004 15.5 21.9998Z" fill="#F15642"/>
<path id="Vector_8" d="M11.3763 15.3598C11.9413 14.806 12.6925 14.4998 13.4925 14.4998C14.2413 14.4998 14.95 15.156 15.5013 15.6485C16.0513 15.156 16.76 14.4998 17.51 14.4998C18.31 14.4998 19.06 14.806 19.625 15.3598C20.0375 15.7648 20.3088 16.2685 20.4288 16.8135C20.4738 16.6098 20.5013 16.4023 20.5013 16.1885C20.5013 15.4035 20.1912 14.6648 19.6262 14.1085C19.06 13.556 18.31 13.2498 17.51 13.2498C16.76 13.2498 16.0513 13.906 15.5013 14.3985C14.9488 13.906 14.2413 13.2498 13.4925 13.2498C12.6925 13.2498 11.9413 13.556 11.3763 14.1098C10.8113 14.6648 10.5 15.4035 10.5 16.1885C10.5 16.401 10.5275 16.6098 10.5725 16.8135C10.6913 16.2673 10.965 15.7648 11.3763 15.3598Z" fill="#DA4E3C"/>
<path id="Vector_9" d="M30.5 21.9998C30.3 21.9998 30.1025 21.9248 29.9488 21.776L26.3775 18.266C25.8112 17.711 25.5 16.9735 25.5 16.1885C25.5 15.4035 25.8113 14.6648 26.3763 14.1085C26.94 13.556 27.6925 13.2498 28.4925 13.2498C29.24 13.2498 29.9488 13.906 30.5 14.3985C31.0513 13.906 31.76 13.2498 32.5088 13.2498C33.31 13.2498 34.0588 13.556 34.6238 14.1098C35.1888 14.666 35.4988 15.4035 35.4988 16.1898C35.4988 16.9748 35.1888 17.7123 34.6238 18.2673L31.0513 21.7773C30.9 21.9248 30.7 21.9998 30.5 21.9998Z" fill="#F15642"/>
<path id="Vector_10" d="M26.3763 15.3598C26.94 14.806 27.6925 14.4998 28.4925 14.4998C29.2412 14.4998 29.9488 15.156 30.5 15.6485C31.0512 15.156 31.76 14.4998 32.5088 14.4998C33.31 14.4998 34.0588 14.806 34.6237 15.3598C35.035 15.7648 35.3087 16.2685 35.4275 16.8135C35.4725 16.6098 35.5 16.4023 35.5 16.1885C35.5 15.4035 35.19 14.6648 34.625 14.1085C34.06 13.556 33.31 13.2498 32.5088 13.2498C31.7588 13.2498 31.0512 13.906 30.5 14.3985C29.9488 13.906 29.24 13.2498 28.4925 13.2498C27.6925 13.2498 26.9412 13.556 26.3775 14.1098C25.8112 14.6648 25.5 15.4035 25.5 16.1885C25.5 16.401 25.5263 16.6098 25.5725 16.8135C25.6913 16.2673 25.9638 15.7648 26.3763 15.3598Z" fill="#DA4E3C"/>
</g>
</g>
<defs>
<filter id="filter0_dd_1_6433" x="0" y="-0.00012207" width="46" height="46" filterUnits="userSpaceOnUse" color-interpolation-filters="sRGB">
<feFlood flood-opacity="0" result="BackgroundImageFix"/>
<feColorMatrix in="SourceAlpha" type="matrix" values="0 0 0 0 0 0 0 0 0 0 0 0 0 0 0 0 0 0 127 0" result="hardAlpha"/>
<feOffset dy="1"/>
<feGaussianBlur stdDeviation="1"/>
<feColorMatrix type="matrix" values="0 0 0 0 0.0627451 0 0 0 0 0.0941176 0 0 0 0 0.156863 0 0 0 0.06 0"/>
<feBlend mode="normal" in2="BackgroundImageFix" result="effect1_dropShadow_1_6433"/>
<feColorMatrix in="SourceAlpha" type="matrix" values="0 0 0 0 0 0 0 0 0 0 0 0 0 0 0 0 0 0 127 0" result="hardAlpha"/>
<feOffset dy="1"/>
<feGaussianBlur stdDeviation="1.5"/>
<feColorMatrix type="matrix" values="0 0 0 0 0.0627451 0 0 0 0 0.0941176 0 0 0 0 0.156863 0 0 0 0.1 0"/>
<feBlend mode="normal" in2="effect1_dropShadow_1_6433" result="effect2_dropShadow_1_6433"/>
<feBlend mode="normal" in="SourceGraphic" in2="effect2_dropShadow_1_6433" result="shape"/>
</filter>
<clipPath id="clip0_1_6433">
<rect width="40" height="40" fill="white" transform="translate(3 1.99988)"/>
</clipPath>
</defs>
</svg>
