<svg width="24" height="24" viewBox="0 0 24 24" fill="none" xmlns="http://www.w3.org/2000/svg">
<g id="Frame" clip-path="url(#clip0_1_6610)">
<g id="Group">
<path id="Vector" d="M12.0561 7.6148C12.0603 7.6148 12.0645 7.6145 12.0688 7.6145C12.0731 7.6145 12.0773 7.6148 12.0816 7.6148C14.1844 7.6148 15.8889 5.91021 15.8889 3.80734C15.8889 1.70471 14.1844 3.05176e-05 12.0816 3.05176e-05C12.0773 3.05176e-05 12.0731 0.000327639 12.0688 0.000327639C12.0645 0.000327639 12.0603 3.05176e-05 12.0561 3.05176e-05C9.9532 3.05176e-05 8.24877 1.70471 8.24877 3.80734C8.24867 5.91021 9.9531 7.6148 12.0561 7.6148ZM21.6188 15.4027L17.3253 12.2808L15.9676 8.96531C15.7092 8.33442 15.0938 7.95827 14.4504 7.97243L14.4502 7.97095H9.54986L9.54966 7.97243C8.9062 7.95827 8.29091 8.33442 8.03246 8.96531L6.67472 12.2808L2.38122 15.4027C1.666 15.9227 1.50768 16.9241 2.02784 17.6395C2.34116 18.0702 2.82933 18.2991 3.32423 18.2991C3.66224 18.2992 3.99154 18.1919 4.26452 17.9926L8.90674 14.6176L8.78844 15.8395L4.39912 20.2883C4.10121 20.5983 3.90103 20.989 3.82346 21.4119C3.7459 21.8348 3.79439 22.2711 3.96289 22.6667C4.13138 23.0622 4.41242 23.3995 4.77108 23.6365C5.12973 23.8736 5.55017 24 5.9801 24H8.07817C7.53751 23.5107 7.19275 22.7805 7.19275 21.9651C7.19275 20.4949 8.31047 19.299 9.68436 19.299H12.0741C12.8569 19.299 13.478 19.9389 13.478 19.9389H9.68436C8.64022 19.9389 7.7907 20.8478 7.7907 21.9651C7.7907 23.0824 8.64022 23.9913 9.68436 23.9913H13.3584C13.3996 23.9883 13.4416 23.9881 13.4822 23.9833H17.9233C18.3532 23.9833 18.7737 23.8568 19.1323 23.6197C19.491 23.3826 19.772 23.0453 19.9405 22.6498C20.109 22.2543 20.1574 21.8179 20.0799 21.3951C20.0023 20.9722 19.8022 20.5815 19.5043 20.2716L15.2106 15.8172H15.2094L15.0933 14.6176L19.7355 17.9926C20.0084 18.1919 20.3377 18.2993 20.6757 18.2991C21.1706 18.2991 21.6588 18.0702 21.9721 17.6395C22.4923 16.9241 22.334 15.9227 21.6188 15.4027Z" fill="#FAA7E0"/>
</g>
</g>
<defs>
<clipPath id="clip0_1_6610">
<rect width="24" height="24" fill="white"/>
</clipPath>
</defs>
</svg>
