<svg width="24" height="24" viewBox="0 0 24 24" fill="none" xmlns="http://www.w3.org/2000/svg">
<g id="Frame">
<g id="Group">
<path id="Vector" d="M9.89734 7.01377C9.517 6.79416 8.97718 6.83176 8.55292 6.9233C8.68571 7.33604 8.92304 7.8225 9.30357 8.04221C9.56729 8.19446 9.90901 8.22244 10.2345 8.19516C10.3063 8.03637 10.3939 7.88518 10.4959 7.74385C10.3569 7.44788 10.1618 7.16644 9.89734 7.01377ZM9.30357 10.4948C8.92342 10.7143 8.68562 11.2032 8.55296 11.6138C8.97676 11.7052 9.51671 11.7429 9.89734 11.5232C10.1613 11.3708 10.3565 11.0885 10.4957 10.7927C10.3937 10.6513 10.3061 10.5001 10.2343 10.3413C9.90873 10.3139 9.56781 10.3423 9.30357 10.4948ZM12.6151 6.65626C12.7035 6.65626 12.7908 6.6608 12.877 6.66938C13.0633 6.4013 13.2089 6.09221 13.2089 5.78747C13.2089 5.34849 12.9044 4.89811 12.6151 4.57791C12.324 4.89924 12.0213 5.34807 12.0213 5.78747C12.0213 6.09216 12.1669 6.40116 12.3533 6.66933C12.4403 6.66067 12.5277 6.6563 12.6151 6.65626ZM15.9266 8.04221C16.307 7.82255 16.5443 7.33636 16.6772 6.92316C16.2534 6.8318 15.7134 6.79402 15.3328 7.01377C15.0685 7.1664 14.8734 7.44779 14.7343 7.74394C14.8363 7.88539 14.9239 8.03669 14.9958 8.19558C15.3215 8.22296 15.6624 8.19465 15.9266 8.04221ZM12.6151 11.8807C12.5267 11.8807 12.4394 11.8762 12.3533 11.8676C12.167 12.1357 12.0213 12.4448 12.0213 12.7495C12.0213 13.1888 12.3237 13.6373 12.6152 13.9591C12.9062 13.6377 13.2089 13.1889 13.2089 12.7495C13.2089 12.4453 13.0625 12.1357 12.8764 11.8676C12.7896 11.8763 12.7024 11.8807 12.6151 11.8807ZM15.9266 10.4948C15.6624 10.3423 15.3216 10.314 14.9958 10.3414C14.9239 10.5003 14.8363 10.6517 14.7342 10.7931C14.8734 11.0891 15.0684 11.3706 15.3328 11.5232C15.7132 11.7428 16.253 11.7053 16.6772 11.6137C16.5444 11.201 16.3071 10.7145 15.9266 10.4948Z" fill="#B692F6"/>
<path id="Vector_2" d="M12.7131 0C7.55685 0 3.36191 4.19494 3.36191 9.35119V10.5796L1.96598 15.196C1.85676 15.5573 2.05223 15.9403 2.40885 16.0639L4.78795 16.8882V20.1935C4.78795 20.5818 5.10276 20.8966 5.49107 20.8966H9.06604V23.2969C9.06604 23.6852 9.38085 24 9.76916 24H18.3253C18.7136 24 19.0284 23.6852 19.0284 23.2969V16.2472C20.9618 14.4759 22.0643 11.9812 22.0643 9.35119C22.0643 4.19494 17.8694 0 12.7131 0ZM14.6297 12.741C14.6245 12.738 14.6197 12.7347 14.6145 12.7317C14.6146 12.7377 14.6151 12.7435 14.6151 12.7495C14.6151 14.2551 13.1979 15.359 13.0363 15.4799C12.9114 15.5733 12.7632 15.6201 12.615 15.6201C12.4669 15.6201 12.3187 15.5733 12.1938 15.4799C12.0322 15.359 10.615 14.2551 10.615 12.7495C10.615 12.7435 10.6155 12.7377 10.6155 12.7317C10.6104 12.7347 10.6056 12.738 10.6004 12.741C10.1431 13.0051 9.64138 13.0935 9.17474 13.0935C8.31074 13.0935 7.56684 12.7906 7.44637 12.739C7.30678 12.6792 7.19032 12.5758 7.11439 12.4443C7.03847 12.3127 7.00716 12.1602 7.02515 12.0094C7.0491 11.809 7.29651 10.0298 8.60038 9.27698C8.60549 9.27403 8.61074 9.27155 8.6159 9.26859C8.61074 9.26569 8.60554 9.26302 8.60043 9.26006C7.29651 8.50725 7.04905 6.72797 7.02515 6.52763C7.00716 6.37683 7.03847 6.22426 7.11439 6.09273C7.19032 5.96121 7.30678 5.8578 7.44637 5.79797C7.63185 5.71852 9.29643 5.04309 10.6004 5.79595C10.6056 5.79895 10.6104 5.80228 10.6155 5.80528C10.6155 5.79933 10.615 5.79352 10.615 5.78752C10.615 4.28189 12.0322 3.17798 12.1938 3.05709C12.3154 2.96613 12.4632 2.91697 12.6151 2.91697C12.7669 2.91697 12.9147 2.96613 13.0363 3.05709C13.1979 3.17798 14.6151 4.28189 14.6151 5.78752C14.6151 5.79347 14.6146 5.79933 14.6146 5.80528C14.6197 5.80228 14.6245 5.79895 14.6297 5.79595C15.9337 5.043 17.5982 5.71852 17.7838 5.79797C17.9233 5.8578 18.0398 5.96121 18.1157 6.09273C18.1917 6.22426 18.223 6.37683 18.205 6.52763C18.181 6.72797 17.9336 8.50725 16.6297 9.26006H16.6297C16.6246 9.26302 16.6194 9.26569 16.6142 9.26859C16.6194 9.2715 16.6246 9.27398 16.6297 9.27698C17.9336 10.0298 18.1811 11.809 18.205 12.0094C18.223 12.1602 18.1917 12.3127 18.1157 12.4443C18.0398 12.5758 17.9233 12.6792 17.7838 12.739C17.6633 12.7906 16.9192 13.0935 16.0554 13.0935C15.5886 13.0934 15.0871 13.0051 14.6297 12.741Z" fill="#B692F6"/>
<path id="Vector_3" d="M12.6151 10.4745C13.2811 10.4745 13.8211 9.93456 13.8211 9.2685C13.8211 8.60244 13.2811 8.0625 12.6151 8.0625C11.949 8.0625 11.4091 8.60244 11.4091 9.2685C11.4091 9.93456 11.949 10.4745 12.6151 10.4745Z" fill="#B692F6"/>
</g>
</g>
</svg>
