<svg width="46" height="46" viewBox="0 0 46 46" fill="none" xmlns="http://www.w3.org/2000/svg">
<g id="Frame" clip-path="url(#clip0_1_6476)" filter="url(#filter0_dd_1_6476)">
<g id="Group">
<path id="Vector" d="M23 42C34.0457 42 43 33.0457 43 22C43 10.9543 34.0457 2 23 2C11.9543 2 3 10.9543 3 22C3 33.0457 11.9543 42 23 42Z" fill="white"/>
<path id="Vector_2" d="M35.8325 6.6675C38.7425 10.1412 40.5 14.6137 40.5 19.5C40.5 30.545 31.545 39.5 20.5 39.5C15.6138 39.5 11.1413 37.7425 7.66751 34.8325C11.3363 39.2125 16.84 42 23 42C34.045 42 43 33.045 43 22C43 15.84 40.2125 10.3362 35.8325 6.6675Z" fill="white"/>
<path id="Vector_3" d="M28.4512 30.75C28.0912 30.75 27.7275 30.6625 27.3962 30.4788C25.0537 29.1825 20.9437 29.1825 18.6012 30.4788C17.635 31.015 16.3762 30.73 15.7925 29.8425C15.2087 28.955 15.52 27.8013 16.4862 27.265C20.1375 25.2438 25.8587 25.2438 29.51 27.265C30.4762 27.8013 30.7875 28.955 30.2037 29.8425C29.8212 30.4263 29.145 30.75 28.4512 30.75Z" fill="#707070"/>
<path id="Vector_4" d="M15.5 23.25C16.8807 23.25 18 22.1307 18 20.75C18 19.3693 16.8807 18.25 15.5 18.25C14.1193 18.25 13 19.3693 13 20.75C13 22.1307 14.1193 23.25 15.5 23.25Z" fill="#707070"/>
<path id="Vector_5" d="M30.5 23.25C31.8807 23.25 33 22.1307 33 20.75C33 19.3693 31.8807 18.25 30.5 18.25C29.1193 18.25 28 19.3693 28 20.75C28 22.1307 29.1193 23.25 30.5 23.25Z" fill="#707070"/>
<path id="Vector_6" d="M16.4875 28.5162C20.1388 26.495 25.86 26.495 29.5112 28.5162C29.9362 28.7525 30.2262 29.11 30.3775 29.51C30.7025 28.685 30.36 27.7375 29.5112 27.2662C25.86 25.245 20.1388 25.245 16.4875 27.2662C15.6375 27.7375 15.2963 28.685 15.6213 29.51C15.7725 29.11 16.0625 28.7525 16.4875 28.5162ZM15.5 19.5C16.6637 19.5 17.6325 20.2987 17.9113 21.375C17.9637 21.1737 18 20.9675 18 20.75C18 19.37 16.88 18.25 15.5 18.25C14.12 18.25 13 19.37 13 20.75C13 20.9675 13.0363 21.1737 13.0888 21.375C13.3675 20.2987 14.3363 19.5 15.5 19.5ZM30.5 19.5C31.6637 19.5 32.6325 20.2987 32.9125 21.375C32.9638 21.1737 33 20.9675 33 20.75C33 19.37 31.88 18.25 30.5 18.25C29.12 18.25 28 19.37 28 20.75C28 20.9675 28.0362 21.1737 28.0875 21.375C28.3675 20.2987 29.3363 19.5 30.5 19.5Z" fill="#AB7934"/>
<path id="Vector_7" d="M34.875 27C35.9105 27 36.75 26.1605 36.75 25.125C36.75 24.0895 35.9105 23.25 34.875 23.25C33.8395 23.25 33 24.0895 33 25.125C33 26.1605 33.8395 27 34.875 27Z" fill="white"/>
<path id="Vector_8" d="M11.125 27C12.1605 27 13 26.1605 13 25.125C13 24.0895 12.1605 23.25 11.125 23.25C10.0895 23.25 9.25 24.0895 9.25 25.125C9.25 26.1605 10.0895 27 11.125 27Z" fill="white"/>
</g>
</g>
<defs>
<filter id="filter0_dd_1_6476" x="0" y="0" width="46" height="46" filterUnits="userSpaceOnUse" color-interpolation-filters="sRGB">
<feFlood flood-opacity="0" result="BackgroundImageFix"/>
<feColorMatrix in="SourceAlpha" type="matrix" values="0 0 0 0 0 0 0 0 0 0 0 0 0 0 0 0 0 0 127 0" result="hardAlpha"/>
<feOffset dy="1"/>
<feGaussianBlur stdDeviation="1"/>
<feColorMatrix type="matrix" values="0 0 0 0 0.0627451 0 0 0 0 0.0941176 0 0 0 0 0.156863 0 0 0 0.06 0"/>
<feBlend mode="normal" in2="BackgroundImageFix" result="effect1_dropShadow_1_6476"/>
<feColorMatrix in="SourceAlpha" type="matrix" values="0 0 0 0 0 0 0 0 0 0 0 0 0 0 0 0 0 0 127 0" result="hardAlpha"/>
<feOffset dy="1"/>
<feGaussianBlur stdDeviation="1.5"/>
<feColorMatrix type="matrix" values="0 0 0 0 0.0627451 0 0 0 0 0.0941176 0 0 0 0 0.156863 0 0 0 0.1 0"/>
<feBlend mode="normal" in2="effect1_dropShadow_1_6476" result="effect2_dropShadow_1_6476"/>
<feBlend mode="normal" in="SourceGraphic" in2="effect2_dropShadow_1_6476" result="shape"/>
</filter>
<clipPath id="clip0_1_6476">
<rect width="40" height="40" fill="white" transform="translate(3 2)"/>
</clipPath>
</defs>
</svg>
