<svg width="24" height="24" viewBox="0 0 24 24" fill="none" xmlns="http://www.w3.org/2000/svg">
<g id="Frame" clip-path="url(#clip0_1_6621)">
<g id="Group">
<path id="Vector" d="M12.5136 5.84278C13.6815 5.84278 14.6283 4.89601 14.6283 3.72811C14.6283 2.5602 13.6815 1.61343 12.5136 1.61343C11.3457 1.61343 10.3989 2.5602 10.3989 3.72811C10.3989 4.89601 11.3457 5.84278 12.5136 5.84278Z" fill="#7CD4FD"/>
<path id="Vector_2" d="M23.0317 6.5343H1.99509C1.46029 6.5343 1.02674 6.96785 1.02674 7.50265C1.02674 8.03745 1.46034 8.471 1.99509 8.471H9.81753L9.80647 14.5286L0.597836 20.0899C0.0128805 20.4431 -0.174948 21.2038 0.178303 21.7887C0.531789 22.374 1.29257 22.5613 1.87711 22.2082C9.78725 17.4118 11.7464 16.2197 11.7464 16.2197H16.9126V21.0904C16.9126 21.7738 17.4665 22.3278 18.1499 22.3278C18.8333 22.3278 19.3873 21.7738 19.3873 21.0904V14.9824C19.3873 14.299 18.8334 13.745 18.1499 13.745H15.2125L15.2221 8.47104H23.0316C23.5664 8.47104 24 8.0375 24 7.5027C24 6.9679 23.5665 6.5343 23.0317 6.5343Z" fill="#7CD4FD"/>
</g>
</g>
<defs>
<clipPath id="clip0_1_6621">
<rect width="24" height="24" fill="white"/>
</clipPath>
</defs>
</svg>
